<svg xmlns="http://www.w3.org/2000/svg" version="1.1" xmlns:xlink="http://www.w3.org/1999/xlink" xmlns:svgjs="http://svgjs.com/svgjs" width="1440" height="560" preserveAspectRatio="none" viewBox="0 0 1440 560"><g mask="url(&quot;#SvgjsMask1000&quot;)" fill="none"><rect width="1440" height="560" x="0" y="0" fill="#0e2a47"></rect><path d="M 0,157 C 57.6,145.4 172.8,80 288,99 C 403.2,118 460.8,254.6 576,252 C 691.2,249.4 748.8,99.2 864,86 C 979.2,72.8 1036.8,201.8 1152,186 C 1267.2,170.2 1382.4,42.8 1440,7L1440 560L0 560z" fill="#184a7e"></path><path d="M 0,304 C 96,332.8 288,427.6 480,448 C 672,468.4 768,404.4 960,406 C 1152,407.6 1344,446 1440,456L1440 560L0 560z" fill="#2264ab"></path></g><defs><mask id="SvgjsMask1000"><rect width="1440" height="560" fill="#ffffff"></rect></mask></defs></svg>