<svg id="visual" viewBox="0 0 900 600" width="900" height="600" xmlns="http://www.w3.org/2000/svg" xmlns:xlink="http://www.w3.org/1999/xlink" version="1.1"><rect x="0" y="0" width="900" height="600" fill="#3BACB6"></rect><path d="M0 415L16.7 419.7C33.3 424.3 66.7 433.7 100 430.7C133.3 427.7 166.7 412.3 200 417.8C233.3 423.3 266.7 449.7 300 463.5C333.3 477.3 366.7 478.7 400 478.7C433.3 478.7 466.7 477.3 500 446.2C533.3 415 566.7 354 600 332.2C633.3 310.3 666.7 327.7 700 348.5C733.3 369.3 766.7 393.7 800 392.2C833.3 390.7 866.7 363.3 883.3 349.7L900 336L900 601L883.3 601C866.7 601 833.3 601 800 601C766.7 601 733.3 601 700 601C666.7 601 633.3 601 600 601C566.7 601 533.3 601 500 601C466.7 601 433.3 601 400 601C366.7 601 333.3 601 300 601C266.7 601 233.3 601 200 601C166.7 601 133.3 601 100 601C66.7 601 33.3 601 16.7 601L0 601Z" fill="#2F8F9D" stroke-linecap="round" stroke-linejoin="miter"></path></svg>